# xmcd CD database file
#
# Track frame offsets:
#	150
#	15011
#	33261
#	47068
#	60514
#	72738
#	90734
#	105812
#	123157
#	141470
#	158402
#
# Disc length: 2294 seconds
#
# Revision: 0
# Processed by: cddbd v1.5.2PL0 Copyright (c) Steve Scherf et al.
# Submitted via: CDex 1.51
#
DISCID=8008f40b
DTITLE=Len Doolin - Once In A Lifetime
DYEAR=2007
DGENRE=Country
TTITLE0=Breakin'what's Left Of My Heart
TTITLE1=Redneck Relapse
TTITLE2=Heartaches And Honky Tonks
TTITLE3=My World Is Turnin'
TTITLE4=Girl Witha Bass Boat
TTITLE5=She Took His Breath Away
TTITLE6=Time Flies
TTITLE7=Heaven Sent Me You
TTITLE8=Silence Says It All
TTITLE9=Once In A Lifetime
TTITLE10=There Ain't No Yellow In The Red, White And Blue
EXTD=YEAR: 2007
EXTT0=
EXTT1=
EXTT2=
EXTT3=
EXTT4=
EXTT5=
EXTT6=
EXTT7=
EXTT8=
EXTT9=
EXTT10=
PLAYORDER=
